<svg viewBox="0 0 390 100" xmlns="http://www.w3.org/2000/svg" class=" "><path d="M134.385 24.801h12.582V10.078L164.077 0v24.801h17.868v15.352h-17.867v27.954c0 7.176 3.019 9.694 7.424 9.694 2.39 0 4.278-.755 6.29-2.518l7.927 13.597c-4.395 3.273-9.937 5.162-16.231 5.162-14.218 0-22.52-6.8-22.52-25.306V40.153h-12.583V24.801zm108.177 33.74c0-10.575-8.303-19.011-18.62-19.011-10.443 0-18.622 8.436-18.622 19.011 0 10.576 8.179 19.01 18.622 19.01 10.317 0 18.62-8.436 18.62-19.01zm-54.605.124c0-19.638 15.479-35.372 35.859-35.372 20.256 0 35.985 15.736 35.985 35.372 0 19.515-15.479 35.373-35.985 35.373-20.384.004-35.86-15.858-35.86-35.373zM263.38 77.17l16.734-6.545c3.02 6.042 8.431 9.19 15.603 9.19 7.046 0 10.82-3.398 10.82-7.429 0-4.908-7.298-6.042-15.98-7.805-11.448-2.39-24.158-5.916-24.158-20.267 0-11.457 11.072-21.402 27.808-21.276 14.342 0 22.9 5.413 29.19 14.478l-15.86 6.419c-2.77-4.532-7.046-7.176-13.337-7.176-6.796 0-10.067 2.77-10.067 6.547 0 4.281 5.542 5.413 15.479 7.554 11.322 2.266 24.65 6.169 24.65 20.773 0 10.574-9.437 22.533-29.19 22.407-16.091 0-26.282-6.042-31.692-16.87zm65.373 0l16.733-6.545c3.019 6.042 8.43 9.19 15.603 9.19 7.045 0 10.82-3.398 10.82-7.429 0-4.908-7.299-6.042-15.98-7.805-11.448-2.39-24.156-5.916-24.156-20.267 0-11.457 11.072-21.402 27.806-21.276 14.343 0 22.899 5.413 29.19 14.478l-15.861 6.419c-2.77-4.532-7.046-7.176-13.337-7.176-6.795 0-10.067 2.77-10.067 6.547 0 4.281 5.542 5.413 15.48 7.554 11.323 2.266 24.65 6.169 24.65 20.773 0 10.574-9.436 22.533-29.191 22.407-16.09 0-26.28-6.042-31.69-16.87zM112.006 52.797a47.008 47.008 0 01-13.745 33.3 46.954 46.954 0 01-33.27 13.775c-18.895.013-35.194-11.12-42.688-27.191A75.726 75.726 0 000 83.113C2.326 69.98 7.187 54.43 15.064 40.18 24.81 22.562 39.476 7.424 61.734 5.948a45.529 45.529 0 018.287.136c23.592 2.388 41.985 22.43 41.985 46.713z" fill="#0050FF" fill-rule="nonzero"/></svg>